<svg xmlns="http://www.w3.org/2000/svg" viewBox="0 0 626 626"><title>Artboard 1</title><path d="M0,418.00274c5.76039-9.57858,9.73331-20.02447,14.44528-30.10284,16.49112-35.27264,32.72335-70.66632,49.059-106.01166,10.8214-23.41418,21.73553-46.78625,32.38416-70.2787,1.54-3.39755,3.26254-4.61893,7.011-4.61226q123.48151.21949,246.96343.19414c8.13868.00359,16.27735.00049,25.1745.00049V281.022c4.11509-1.775,5.39576-5.10785,7.608-7.38245,21.97052-22.58972,60.84793-18.06356,79.75979,3.2421,11.57532,13.04047,16.81388,28.5415,18.37284,45.423,2.12695,23.0324-1.02479,45.22442-12.643,65.64727-14.71252,25.86216-48.76288,36.60974-75.56555,23.80332a39.07709,39.07709,0,0,1-14.55487-12.66349c-.95575-1.31188-1.51831-2.97433-3.92386-3.8146V412.701c-7.58191,0-14.52664-.0007-21.47134.00058-1.67087.0003-2.38923-.89609-2.39283-2.49839-.00335-1.49945-.04086-2.99884-.041-4.49826q-.00994-94.73739-.03281-189.47479c-.00079-1.96231.38443-3.97934-.69736-6.48543-3.32229,3.92609-4.64929,8.55721-6.58715,12.72895q-29.12878,62.70663-57.96344,125.54988c-10.39054,22.50836-20.96021,44.93487-31.18635,67.51733-1.58453,3.49915-3.8979,3.4083-6.76353,3.40717q-76.48983-.03021-152.97966-.01572Q46.98762,418.942,0,419.00274Zm455.6178-83.89642a96.39122,96.39122,0,0,0-5.06375-29.89725c-9.47181-26.72723-45.26776-28.39825-60.00028-14.513-8.46423,7.97742-12.01428,18.2024-14.08224,29.11023-3.13211,16.52088-4.11869,33.10639,1.58139,49.30277,5.37115,15.26172,16.11252,24.84479,32.34787,26.72174,17.41614,2.01346,29.87173-5.182,37.83035-20.90512C454.32568,361.88519,455.54059,348.80951,455.6178,334.10632Z"/><path d="M626,313.00274c-6.98645.05311-13.97681-.01156-20.95752.21695-2.816.0922-3.619-1.14389-4.1853-3.63879C598.86279,300.795,595.234,292.929,587.655,287.38373c-12.63635-9.24567-37.99829-9.10205-50.01453,6.85327-12.86279,17.07944-13.87622,36.54617-12.10809,56.56515.95538,10.818,3.57788,21.20392,10.0907,30.37958,13.32794,18.77741,43.783,18.8407,57.16192-.01718a50.41363,50.41363,0,0,0,7.90509-17.63443c.67066-2.80231,2.01691-3.71143,4.84382-3.63013,6.81732.196,13.64349.08814,20.46606.10275v3c-2.65045,9.08249-4.92328,18.25354-9.76538,26.587-14.24445,24.51511-42.05621,31.07639-66.95142,25.74054-29.87463-6.40317-46.53784-30.38519-50.1343-58.39038a119.40991,119.40991,0,0,1,4.78033-52.78714c14.36612-44.10526,61.72116-53.38905,91.846-40.10117,13.72308,6.05317,21.92816,17.45621,26.48413,31.52622,1.42981,4.41571,2.50372,8.94668,3.7406,13.42489Z"/></svg>