<svg xmlns="http://www.w3.org/2000/svg" viewBox="0 0 695.92678 90"><title>the-shakeouts</title><path d="M68.37973,23.37989h.50262q1.50831.12636,1.50847.75408a20.5711,20.5711,0,0,1-4.77657,2.26255A8.36141,8.36141,0,0,1,67.62534,27.905a11.7628,11.7628,0,0,1-4.02217,2.26255v.75408q0,1.76055,2.01108,1.75993h2.01109v.75408q-8.234,5.27934-10.80982,5.27918-4.08621,0-17.84925,3.771-2.2007,0-3.26809,35.19588,0,4.77719-3.26809,10.55836h-.25147l-3.51955-1.75931H27.905a11.33748,11.33748,0,0,1-.75408-3.26872h-.25146q-3.3323,6.78765-3.771,6.788H22.877q-1.25795-4.27364-1.75962-4.27395a20.87334,20.87334,0,0,1-2.76548,2.01109l-.25146-.5023V76.17292q0-13.70024,1.257-31.17308H14.32969q-4.21162,0-10.81013-3.771v-.50261A19.03343,19.03343,0,0,0,3.771,37.20665Q0,35.63633,0,32.68155v-1.257q0-2.70144,5.78211-3.2681l50.78195-3.26809A46.14676,46.14676,0,0,0,68.37973,23.37989Z" style="fill:#231f20"/><path d="M88.23975,3.771h.25147a36.52742,36.52742,0,0,1,.75407,7.54173v1.00554q.62757,0,1.257-2.76516h.50293a41.94023,41.94023,0,0,1,.50261,7.03911q0,5.27934-4.02217,11.81536-1.25794,2.20071-1.257,8.04466-.629,0-1.00555,5.27949h.25147a16.69222,16.69222,0,0,1,3.26809.25146q14.83184-1.44537,14.83231-2.26254,1.25653-1.75915,4.52509-12.82122,3.896-10.49526,4.5251-10.81014h.25147v.25147q.25037,2.20069.25146,2.76547,1.69668,0,4.77657-5.7821h.25115V20.1118h.50292a53.96267,53.96267,0,0,1,2.76517-5.531h.50293v5.27949q1.31994-.31378,3.01663-5.53064h.50292v2.76516l-1.75962,9.8046v.75407a10.79413,10.79413,0,0,0,.75408,3.01663,110.18785,110.18785,0,0,1-5.028,11.56422q-3.771,12.50805-5.53064,40.22359-.94275,3.95985-6.03357,7.542h-.75408q-.504-1.75867-1.00554-1.75993l-1.75994,1.50878-.25115-.50293V86.98306q0-1.63374-3.51955-3.01632a40.7221,40.7221,0,0,1-.7544-7.03911q1.50832-17.724,1.50848-21.11734-.18837-.94323-5.53065-1.257a102.0337,102.0337,0,0,0-12.56975,1.257Q80.4453,83.58939,75.67,88.24007h-.25147Q74.9784,83.71559,74.413,83.715H72.90483q-1.824,0-3.01694,3.01694h-.50261q-.6924-8.29644-1.257-8.29612L66.6198,79.44164a22.247,22.247,0,0,1-1.257-7.29089V63.35233q0-19.79739,5.27949-43.99493,2.51261-2.01045,2.5137-8.29612A5.17492,5.17492,0,0,1,75.67,9.55313q1.00476-3.771,3.771-3.771h.50261a17.88973,17.88973,0,0,1,1.00586,4.77656h.25115q2.38812-3.771,2.76548-3.771l.25146.50293v5.27918h.75408Q87.10754,5.34337,88.23975,3.771Z" style="fill:#231f20"/><path d="M132.98813,0q.50262.629,1.50847,5.78211h.75408l1.257-4.02218h.25146q.50215.31519,1.50847,6.53619,1.06772,1.50831,1.257,1.50847a66.57073,66.57073,0,0,0,1.257-8.04466h.50261q2.01093,9.17672,2.01109,10.30721,10.4323-.7544,12.82122-.75439,2.13588,0,6.78765.25146,11.50141-2.51307,13.57561-2.514h.50261v.25146l-2.76516,3.2681c.041.336.20887.50292.50261.50292h2.76548l1.75962.25147v.50261q-.50355,0-3.51955,2.76548a4.45637,4.45637,0,0,1,1.75993,3.01663v.50293q0,3.89738-16.8437,5.7821-17.34633.88076-17.34632,1.50816-.88076,0-1.75962,10.81013h3.51955q19.043-2.51307,21.62-2.514h.25146a4.73355,4.73355,0,0,1,4.27364,2.01109v.50292q0,2.70285-6.03357,5.27918,0,.7544,6.285,1.257,2.76485,1.57173,2.76548,3.26809-1.38338,2.452-7.03912,4.27395-6.16054,1.44678-25.64243,3.51987-2.01234,1.13112-2.01109,4.5251v3.01694q28.65891-4.14869,28.65907-6.03388a18.51623,18.51623,0,0,1,5.7821-1.257q1.50833.25178,1.50816.75408l-4.5251,3.26809v.25178h4.274q.50214.06294.50262.50293-4.52494,4.84013-4.5251,5.27918h.25146a48.08885,48.08885,0,0,0,5.78211-1.00586l.50261.75408q-4.52495,3.89784-4.5251,5.2798,0,3.834-9.80428,5.53033-6.34891,1.50879-25.13951,4.77688a7.0559,7.0559,0,0,1-3.01694,1.257q0-.37767-1.00554-.75471-.94277,0-2.26255,3.771h-.25147q-.44013,0-1.75962-3.01631h-.50293q0,.43967-2.26254,7.29026h-.25116q-.566,0-.75439-1.257l-1.257,1.00586h-.25116q-.504-.31379-1.50847-8.29612a9.259,9.259,0,0,1-1.50847-4.0228V75.67062q0-1.19312,3.01694-7.29089,1.75869-17.5342,3.51925-43.24022v-.75408a13.512,13.512,0,0,0-.25115-2.514q0-5.34134,3.26809-12.31829a66.51,66.51,0,0,0,1.257-9.30167Z" style="fill:#231f20"/><path d="M244.60809,26.648h4.27363q14.32969,1.25794,14.32969,6.53619c.16691,0,.25147.336.25147,1.00554v.50293q0,2.95509-4.02249,5.53064-1.00617,4.27458-3.26809,4.27364-11.06223,2.95509-15.33523,6.78827a1.842,1.842,0,0,1-1.00555.50293v.25115q3.33042,3.45724,12.82122,8.29612a7.86476,7.86476,0,0,1,3.51956,7.03911v2.514a2.57168,2.57168,0,0,1-.25147,1.257l.25147,1.50816v1.50816q0,9.23871-13.07269,15.33523A30.18455,30.18455,0,0,1,238.57452,90q-6.47388-.25084-7.29027-.25115a10.18263,10.18263,0,0,1-1.00554-2.76579q-8.4848,0-10.81014-3.01632-2.51448-1.44584-2.514-2.514-5.78289,0-5.78211-1.00586a13.89586,13.89586,0,0,1,4.02249-1.50815v-.50293q-3.26747-.94228-3.26841-1.50816v-.25178q9.67792-3.771,15.33524-3.771,5.091,0,11.31275-6.03326a1.9295,1.9295,0,0,1,.25146-.75407Q221.16447,53.9251,220.97705,48.26794v-1.257q0-10.11805,21.117-20.11148Z" style="fill:#231f20"/><path d="M280.11775,3.771h.25146a36.52673,36.52673,0,0,1,.75408,7.54173v1.00554q.62757,0,1.257-2.76516h.50292a41.93906,41.93906,0,0,1,.50262,7.03911q0,5.27934-4.02217,11.81536-1.25795,2.20071-1.257,8.04466-.629,0-1.00554,5.27949h.25146a16.69222,16.69222,0,0,1,3.26809.25146q14.83183-1.44537,14.83231-2.26254,1.25653-1.75915,4.5251-12.82122,3.896-10.49526,4.5251-10.81014h.25146v.25147q.25037,2.20069.25147,2.76547,1.69667,0,4.77656-5.7821h.25115V20.1118h.50293a53.961,53.961,0,0,1,2.76516-5.531h.50293v5.27949q1.32-.31378,3.01663-5.53064h.50293v2.76516l-1.75962,9.8046v.75407a10.79413,10.79413,0,0,0,.75408,3.01663,110.1901,110.1901,0,0,1-5.028,11.56422q-3.771,12.50805-5.53064,40.22359-.94277,3.95985-6.03357,7.542h-.75408q-.504-1.75867-1.00555-1.75993l-1.75993,1.50878-.25115-.50293V86.98306q0-1.63374-3.51956-3.01632a40.72239,40.72239,0,0,1-.75439-7.03911q1.50831-17.724,1.50847-21.11734-.18837-.94323-5.53064-1.257a102.03382,102.03382,0,0,0-12.56976,1.257q-2.76672,27.7791-7.542,32.42978h-.25146q-.44014-4.52448-1.00555-4.5251h-1.50815q-1.824,0-3.017,3.01694h-.50261q-.69239-8.29644-1.257-8.29612l-1.50847,1.00585a22.247,22.247,0,0,1-1.257-7.29089V63.35233q0-19.79739,5.27949-43.99493,2.51261-2.01045,2.5137-8.29612a5.17488,5.17488,0,0,1,2.514-1.50815q1.00476-3.771,3.771-3.771h.50262a17.88962,17.88962,0,0,1,1.00585,4.77656h.25115q2.38814-3.771,2.76548-3.771l.25147.50293v5.27918h.75407Q278.98553,5.34337,280.11775,3.771Z" style="fill:#231f20"/><path d="M338.94435,0h.75408q1.50879,4.08621,1.50941,4.27364l3.01632-2.51371A7.01227,7.01227,0,0,1,345.23,5.028l2.01046-1.257h.50356q3.26558.629,3.26809,2.514v6.78765q0,6.59881,10.0548,26.648,1.88644,7.03943,7.03974,7.03911,8.1696-2.01093,10.55836-2.0114,5.5297,0,5.53033,1.75993v.25147q-4.77625,3.26888-4.77625,3.51955,2.514,2.01234,3.01756,2.01109v.25178q-.37766.69239-13.07362,5.27918,0,2.70284,4.52573,13.32414,5.028,13.13656,5.028,13.5753a14.13672,14.13672,0,0,1-4.02217-1.75993V84.972a17.14615,17.14615,0,0,0,.5023,3.2681A14.16706,14.16706,0,0,1,371.37475,90q-4.77624-3.896-14.58052-27.90468a3.66211,3.66211,0,0,0-2.26349-1.257q-15.334,1.06911-15.33492,3.771-4.33659,17.84986-5.028,17.84862a4.42041,4.42041,0,0,0-2.514-1.00523q-1.69668,0-2.51371,5.53033h-.50292a7.95982,7.95982,0,0,0-4.02217-3.01632,4.03934,4.03934,0,0,1-.50293-1.75993,97.53173,97.53173,0,0,1,1.50847-17.34632h-.25147l-1.75993-.25115-8.29581,2.01108-.25146-.50292q.37719-.062,2.514-3.017V62.8494h-2.26255a1.55561,1.55561,0,0,1-1.75993-1.75993v-.25115q.37719-1.19313,8.79905-4.5251a10.73611,10.73611,0,0,0,3.26809-8.29675q5.02708-27.58932,8.79873-39.46889A25.83008,25.83008,0,0,1,338.94435,0Zm6.788,39.97182-1.50815,8.54758h.25177l5.27856-1.257a9.05849,9.05849,0,0,0-3.7704-7.29057Z" style="fill:#231f20"/><path d="M405.37594,8.79873q.87935,3.771,2.26287,3.771,1.25606,0,3.77039-3.51956h.50293v.25146a9.88423,9.88423,0,0,1-.50293,3.01663h.25178a2.92216,2.92216,0,0,1,1.50816-.50261h.50292v6.78765q0,3.33181-3.51987,8.79873-3.01662,8.61162-3.01631,10.81013,7.85582-4.1482,23.8825-15.33523,10.243-6.28362,14.32938-6.78765v2.76548a41.59321,41.59321,0,0,1,5.531-1.257,10.09191,10.09191,0,0,0-1.50878,3.2681,5.66084,5.66084,0,0,1,2.26286,1.00554q-3.58218,10.05652-7.29026,10.05574a59.58485,59.58485,0,0,0-14.83231,9.30166q14.57959,23.00333,14.58053,27.90562a19.89561,19.89561,0,0,1,1.50879,6.28441v.50292q-1.25794,13.82708-3.771,13.82708A.22235.22235,0,0,1,441.57674,90a114.9238,114.9238,0,0,1-14.58053-18.1004q-5.2178-7.73087-12.82122-20.36326-12.82185,6.47386-12.82122,8.29612Q398.525,71.08352,397.3316,73.65954q-3.8349,3.07957-5.78211,10.3072L390.54364,84.972q-.69239-.75439-1.00586-4.02217a45.94376,45.94376,0,0,1-5.7821,2.514h-.25115V83.212q0-2.51214-.50293-2.51339a24.427,24.427,0,0,0-2.76517,1.50816l-.25115-.50293a16.71578,16.71578,0,0,0,.75408-4.02217q-.50262-8.48433-.50293-9.0502.18884-9.86628,12.31829-50.02818,2.26224-5.15252,8.29612-9.30167.94229,3.771,1.257,3.771Q402.10785,12.50712,405.37594,8.79873Z" style="fill:#231f20"/><path d="M445.85069,0q.50261.629,1.50878,5.78211h.75408l1.257-4.02218h.25115q.5026.31519,1.50816,6.53619,1.06817,1.50831,1.257,1.50847a66.49994,66.49994,0,0,0,1.257-8.04466h.50293q2.01045,9.17672,2.01108,10.30721,10.43184-.7544,12.82122-.75439,2.13635,0,6.788.25146,11.501-2.51307,13.5753-2.514h.50293v.25146l-2.76579,3.2681c.04134.336.20919.50292.50293.50292h2.76516l1.75994.25147v.50261q-.50356,0-3.51925,2.76548a4.45509,4.45509,0,0,1,1.75931,3.01663v.50293q0,3.89738-16.84339,5.7821-17.34632.88076-17.34632,1.50816-.88028,0-1.75993,10.81013h3.51987q19.043-2.51307,21.62027-2.514h.25115a4.73373,4.73373,0,0,1,4.27394,2.01109v.50292q0,2.70285-6.03388,5.27918,0,.7544,6.285,1.257,2.76485,1.57173,2.76516,3.26809-1.3829,2.452-7.03911,4.27395-6.16009,1.44678-25.64244,3.51987-2.01139,1.13112-2.01109,4.5251v3.01694q28.65939-4.14869,28.65938-6.03388a18.51455,18.51455,0,0,1,5.78211-1.257q1.50785.25178,1.50816.75408l-4.5251,3.26809v.25178h4.274c.33445.042.50292.20981.50292.50293q-4.52541,4.84013-4.5251,5.27918h.25116a48.08845,48.08845,0,0,0,5.7821-1.00586l.50293.75408q-4.52541,3.89784-4.5251,5.2798,0,3.834-9.8049,5.53033-6.348,1.50879-25.13951,4.77688a7.05288,7.05288,0,0,1-3.01632,1.257c0-.25178-.33633-.50293-1.00586-.75471q-.94229,0-2.26223,3.771h-.25178q-.44061,0-1.75993-3.01631h-.50231q0,.43967-2.26286,7.29026h-.25115q-.56556,0-.75408-1.257l-1.257,1.00586h-.25177q-.50356-.31379-1.50816-8.29612a9.25327,9.25327,0,0,1-1.50816-4.0228V75.67062q0-1.19312,3.01632-7.29089,1.75867-17.5342,3.51987-43.24022v-.75408a13.48768,13.48768,0,0,0-.25178-2.514q0-5.34134,3.26809-12.31829a66.46238,66.46238,0,0,0,1.257-9.30167Z" style="fill:#231f20"/><path d="M523.155,25.13951h.75408q.81546,0,1.50816,3.01694a18.03893,18.03893,0,0,0,4.02217-.75439l.25178.50293a9.30173,9.30173,0,0,0-.25178,2.76516q2.51307.12684,2.514.7544-2.20025,3.52065-2.514,3.51955,11.06128,12.94773,11.06191,21.87142v3.26809q0,10.24489-8.29612,20.615Q522.52592,90.00032,515.36185,90H510.585q-16.27813,0-22.37434-18.35217a17.60127,17.60127,0,0,1-.5023-4.27333v-2.514q0-5.78148,8.54727-22.1232a78.00769,78.00769,0,0,1,9.0502-8.29612q6.22209-7.79241,10.05605-7.79319,2.19835.25177,2.76517.25147A21.634,21.634,0,0,1,523.155,25.13951ZM505.557,67.87743q.69144,6.53682,5.2798,6.53619,5.96937,0,12.06652-10.559a15.34118,15.34118,0,0,0,1.257-5.7821V53.29628q0-5.27981-10.05543-5.27981H513.099q-5.84536,0-7.542,15.08408Z" style="fill:#231f20"/><path d="M573.55933,14.83231h.25177q.87934.37719,3.01695,6.78764h.5023l1.75993-4.02217h.25115q.62757,0,2.01172,5.02772h.25115q.50261,0,2.01108-3.01663h.50293l1.00523,12.56975q-.50355,4.14822-.5023,4.5251a60.15248,60.15248,0,0,1,.5023,6.285q0,10.3083,1.50878,33.18416v3.26872a11.56646,11.56646,0,0,1-4.5251,9.5525l-1.75993-1.00523L578.3362,90h-.25177q-1.25794-7.79194-5.78211-7.79319-.50355-1.06818-1.75931-13.32415h-.25178q-9.49049,13.82708-18.10039,13.82708h-2.514q-11.06222,0-11.06128-12.3183L536.3533,50.78226V46.00539q0-7.47864,4.02217-18.1004l2.01109-7.79319h.50293l1.50816,6.53618q1.1311,0,3.01694-10.81013l.50292-.25115q.9423,1.06911,2.26224,13.32383a7.914,7.914,0,0,1,2.01109,4.02249q0,2.45106-.25115,9.05019,0,14.3297,1.75993,14.33,1.4449,2.0114,2.76517,2.01108h.50292q5.59266,0,8.04435-14.33,3.26747-10.49526,6.53618-22.877Q572.49147,19.73539,573.55933,14.83231Z" style="fill:#231f20"/><path d="M648.66408,23.37989h.50293q1.50784.12636,1.50815.75408a20.57521,20.57521,0,0,1-4.77625,2.26255A8.36974,8.36974,0,0,1,647.91,27.905a11.76179,11.76179,0,0,1-4.0228,2.26255v.75408q0,1.76055,2.01171,1.75993H647.91v.75408q-8.23443,5.27934-10.81013,5.27918-4.08669,0-17.84925,3.771-2.20023,0-3.26809,35.19588,0,4.77719-3.2681,10.55836h-.25115l-3.51987-1.75931h-.75408a11.33773,11.33773,0,0,1-.75407-3.26872h-.25178q-3.33135,6.78765-3.7704,6.788h-.25177q-1.25794-4.27364-1.75994-4.27395a20.83613,20.83613,0,0,1-2.76516,2.01109l-.25115-.5023V76.17292q0-13.70024,1.257-31.17308h-5.028q-4.21164,0-10.81014-3.771v-.50261a19.01008,19.01008,0,0,0,.25115-3.51956q-3.77007-1.57032-3.77039-4.5251v-1.257q0-2.70144,5.7821-3.2681l50.78195-3.26809A46.14269,46.14269,0,0,0,648.66408,23.37989Z" style="fill:#231f20"/><path d="M677.07231,26.648h4.27332q14.3297,1.25794,14.32938,6.53619c.16722,0,.25177.336.25177,1.00554v.50293q0,2.95509-4.02217,5.53064-1.00617,4.27458-3.26809,4.27364-11.06316,2.95509-15.33523,6.78827a1.8426,1.8426,0,0,1-1.00586.50293v.25115q3.33041,3.45724,12.82122,8.29612a7.865,7.865,0,0,1,3.51987,7.03911v2.514a2.56783,2.56783,0,0,1-.25178,1.257l.25178,1.50816v1.50816q0,9.23871-13.073,15.33523A30.18042,30.18042,0,0,1,671.03842,90q-6.47386-.25084-7.29026-.25115a10.20269,10.20269,0,0,1-1.00586-2.76579q-8.48432,0-10.81013-3.01632-2.514-1.44584-2.51339-2.514-5.78335,0-5.7821-1.00586a13.88736,13.88736,0,0,1,4.02217-1.50815v-.50293q-3.26747-.94228-3.26809-1.50816v-.25178q9.67745-3.771,15.33523-3.771,5.09,0,11.31243-6.03326a1.92068,1.92068,0,0,1,.25178-.75407Q653.62822,53.9251,653.441,48.26794v-1.257q0-10.11805,21.11734-20.11148Z" style="fill:#231f20"/></svg>