<svg xmlns="http://www.w3.org/2000/svg" viewBox="0 0 352.93334 355.84433"><title>unearthedlogo</title><path d="M91.07551,187.98536c1.61957-.21922,2.73964-.47343,3.86642-.50778,14.31816-.43654,28.63789-.822,42.95559-1.27264a8.62527,8.62527,0,0,1,6.74876,2.204,9.02155,9.02155,0,0,0,13.3552-.75769,9.34088,9.34088,0,0,0-13.60454-12.76906,7.88851,7.88851,0,0,1-6.15529,2.31551c-15.15211-.38855-30.30827-.61605-45.46227-.93563-3.8864-.082-4.23036-.43168-3.554-4.46673,1.46511-8.74105,5.42533-16.37,10.83631-23.29055,12.18246-15.58107,28.22375-26.14044,45.62292-34.89616,3.56529-1.79414,7.30959-3.23063,10.893-4.99138,2.1919-1.077,3.28177-.44292,4.18351,1.69387q3.298,7.81519,6.89331,15.50344c1.30793,2.78246,2.09333,5.19521.68512,8.44625-1.7195,3.96958.23916,8.10784,3.82872,10.35937a9.511,9.511,0,0,0,11.56991-.982c3.02214-2.69781,4.18488-6.91655,2.23195-10.40742-1.06361-1.9012-3.12144-3.26732-4.80508-4.79285-1.056-.95682-2.81063-1.52689-3.29009-2.67285-2.94266-7.03334-5.61085-14.1815-8.65311-22.01979,35.43631-11.56956,70.71077-16.22065,108.01941-6.83784-6.73745,8.52216-12.58468,16.35343-20.88842,21.80407-3.567,2.3414-7.24927,1.29355-9.7356-2.78542-2.2207-3.64315-3.87875-7.62925-6.32059-12.54123-.33894,2.31131-.47543,3.62941-.73268,4.92353-.77455,3.8966-1.096,7.97661-2.50543,11.63388-2.77368,7.1971-8.43535,11.19424-16.15759,11.23282-5.42794.0271-10.86081-.93926-16.68518-1.49991,1.03016.89285,1.93048,1.68226,2.84259,2.45779.25285.215.54608.38173.81186.58244q20.01324,15.11307,2.00138,32.38576c-1.84268,1.76148-3.63852,3.572-5.456,5.35977l.6528,1.1019a56.90555,56.90555,0,0,1,5.68432-.91719c4.95517-.3157,9.97289-1.02626,14.86876-.56067,6.65625.633,11.35315,4.6075,13.54994,11.00881,1.38567,4.03781,2.3178,8.23124,3.56569,12.76272,1.37921-3.964,2.57529-7.71452,3.98157-11.38449,4.18457-10.92047,10.32129-14.3728,21.79263-12.12677,3.55915.69687,7.022,1.88559,11.2518,3.04775-.702-1.53545-1.25329-2.58239-1.66857-3.68074-1.055-2.79039-2.40833-5.53083-2.99588-8.42258-1.40592-6.91954.2564-10.29674,6.68072-13.25519,5.39954-2.48657,11.02612-4.48021,16.52975-7.421-2.159,0-4.32821.13214-6.47473-.032a46.86319,46.86319,0,0,1-8.85922-1.11181c-4.50073-1.24153-5.78262-4.39617-3.39432-8.39678,5.04688-8.454,12.76-14.39059,20.16449-20.57843,1.9271-1.61046,2.99466.29045,4.13062,1.35819,10.21506,9.60168,13.08047,23.7919,7.60858,37.67964-4.0603,10.305-10.8981,18.61981-18.94955,26.00218-17.3787,15.93456-37.9704,26.2603-60.06913,33.74512-25.48265,8.63092-51.66377,12.86108-78.62472,11.065-15.06647-1.00373-29.71448-3.88109-43.16056-11.2063C100.79935,203.75512,94.60548,197.11784,91.07551,187.98536Z" style="fill:#457f2c"/><path d="M194.72693,324.71171c2.24949-7.63916,4.20355-14.12958,6.07142-20.64471q9.56061-33.34709,19.0715-66.70836c.04577-.16014.07755-.32431.12458-.484,1.76942-6.00892,2.35481-6.13894,6.82068-1.87539q31.79795,30.3574,63.637,60.67168c3.15359,3.00458,3.85251,2.82748,4.79056-1.56052q9.44486-44.1812,18.80157-88.38119,3.42732-16.11676,6.88043-32.22806a6.40974,6.40974,0,0,1,.39573-1.9418A14.12349,14.12349,0,0,1,323.15,169.5164c.66546.78151,1.77694,1.48862,1.92178,2.35693.76639,4.59534,1.31879,9.2276,1.89239,13.8536,3.196,25.77384,5.43378,51.71234,9.84644,77.27568,3.8681,22.40838-4.28473,39.36834-19.48737,54.20681-18.41726,17.97608-41.13092,27.87726-65.73449,33.958-18.9572,4.68524-38.16486,6.09061-57.50444,3.11493-13.99364-2.15314-27.09186-6.83264-38.25458-15.95572a43.22429,43.22429,0,0,1-12.41754-16.05243q-20.16267-45.37911-40.32449-90.75867c-.27051-.60884-.77042-1.23283-.74206-1.82974a4.26974,4.26974,0,0,1,.80928-2.52336c.26931-.3007,1.61605-.02789,2.16025.39285a23.44282,23.44282,0,0,1,2.76075,2.87519q41.26953,45.17616,82.54514,90.34688C191.5962,321.84407,192.70817,322.78578,194.72693,324.71171Z" style="fill:#457f2c"/><path d="M249.18812,153.5068a9.2599,9.2599,0,0,1-9.51274-8.4127c-.47575-4.85749,2.91118-9.75518,7.80257-9.79051,3.85327-.02784,5.65173-2.12,7.72485-4.4851q39.99239-45.62517,80.00458-91.233c1.09762-1.25127,2.22241-2.48155,3.38431-3.67307,3.38412-3.47041,8.19241-3.79929,11.57577-.82248,3.539,3.11374,3.77359,7.63218.172,11.45957-7.303,7.76092-14.7757,15.3628-22.21,22.99947q-33.62385,34.53892-67.29129,69.03539a5.86641,5.86641,0,0,0-2.06015,5.13655C259.20366,149.35789,254.79594,153.53492,249.18812,153.5068Z" style="fill:#457f2c"/><path d="M115.75659,8.83751c-.115-4.27757,2.35556-7.54631,5.84738-8.50786a7.77029,7.77029,0,0,1,9.32231,3.97414,102.27538,102.27538,0,0,1,3.98947,9.668Q150.48352,54.465,166.014,94.97258c1.62294,4.22878,1.62258,4.23108-2.79977,5.84417a11.31433,11.31433,0,0,0-1.88138.65621c-3.12271,1.83474-4.53334.546-5.86661-2.49727-9.40809-21.47406-18.97966-42.87655-28.50946-64.29725-3.24366-7.291-6.53668-14.56016-9.7612-21.85959C116.53164,11.31587,116.07234,9.72249,115.75659,8.83751Z" style="fill:#457f2c"/><path d="M85.214,187.71559c-1.21935.16786-2.17436.38827-3.13539.41862q-35.633,1.12533-71.26819,2.17971a17.94962,17.94962,0,0,1-5.86244-.64348,7.41989,7.41989,0,0,1-4.91733-7.80265,7.72218,7.72218,0,0,1,6.18634-6.887,20.20554,20.20554,0,0,1,3.96426-.20749q34.40432.55645,68.808,1.14977c4.674.07966,4.62813.09721,5.13509,4.80479C84.36917,183.00111,84.82274,185.25189,85.214,187.71559Z" style="fill:#457f2c"/></svg>